<svg width="17" height="10" viewBox="0 0 17 10" fill="none" xmlns="http://www.w3.org/2000/svg">
<path d="M5.74466 9.28571C5.74466 9.09627 5.81831 8.91459 5.94942 8.78064C6.08053 8.64668 6.25835 8.57143 6.44376 8.57143H10.6384C10.8238 8.57143 11.0016 8.64668 11.1327 8.78064C11.2638 8.91459 11.3375 9.09627 11.3375 9.28571C11.3375 9.47515 11.2638 9.65684 11.1327 9.79079C11.0016 9.92475 10.8238 10 10.6384 10H6.44376C6.25835 10 6.08053 9.92475 5.94942 9.79079C5.81831 9.65684 5.74466 9.47515 5.74466 9.28571ZM2.94826 5C2.94826 4.81056 3.02191 4.62888 3.15302 4.49492C3.28413 4.36097 3.46194 4.28571 3.64736 4.28571H13.4348C13.6202 4.28571 13.798 4.36097 13.9291 4.49492C14.0602 4.62888 14.1339 4.81056 14.1339 5C14.1339 5.18944 14.0602 5.37112 13.9291 5.50508C13.798 5.63903 13.6202 5.71429 13.4348 5.71429H3.64736C3.46194 5.71429 3.28413 5.63903 3.15302 5.50508C3.02191 5.37112 2.94826 5.18944 2.94826 5ZM0.151855 0.714286C0.151855 0.524845 0.225511 0.343164 0.356617 0.20921C0.487724 0.075255 0.665543 0 0.850956 0H16.2312C16.4166 0 16.5944 0.075255 16.7255 0.20921C16.8566 0.343164 16.9303 0.524845 16.9303 0.714286C16.9303 0.903726 16.8566 1.08541 16.7255 1.21936C16.5944 1.35332 16.4166 1.42857 16.2312 1.42857H0.850956C0.665543 1.42857 0.487724 1.35332 0.356617 1.21936C0.225511 1.08541 0.151855 0.903726 0.151855 0.714286Z" fill="#FEFEFE"/>
</svg>
