<?xml version="1.0" encoding="utf-8"?>
<!-- Generator: Adobe Illustrator 25.0.0, SVG Export Plug-In . SVG Version: 6.00 Build 0)  -->
<svg version="1.1" id="Layer_1" xmlns="http://www.w3.org/2000/svg" xmlns:xlink="http://www.w3.org/1999/xlink" x="0px" y="0px"
	 viewBox="0 0 16 16" style="enable-background:new 0 0 16 16;" xml:space="preserve">
<style type="text/css">
	.st0{fill:#FFFFFF;}
	.st1{fill:#FE0000;}
</style>
<g>
	<circle class="st0" cx="8" cy="8" r="7"/>
	<path class="st1" d="M15.1,8c0,3.9-3.2,7.1-7.1,7.1S0.9,11.9,0.9,8S4.1,0.9,8,0.9S15.1,4.1,15.1,8z M5.6,5C5.5,4.8,5.2,4.8,5,5
		S4.8,5.5,5,5.6L7.4,8L5,10.4c-0.2,0.2-0.2,0.5,0,0.6s0.5,0.2,0.6,0L8,8.6l2.4,2.4c0.2,0.2,0.5,0.2,0.6,0s0.2-0.5,0-0.6L8.6,8
		L11,5.6c0.2-0.2,0.2-0.5,0-0.6s-0.5-0.2-0.6,0L8,7.4L5.6,5z"/>
</g>
</svg>
